<svg aria-hidden="true" width="300" height="250" viewBox="0 0 30 25" fill="none" xmlns="http://www.w3.org/2000/svg">
  <title>UpCloud logo</title>
  <path fill-rule="evenodd" clip-rule="evenodd" d="M12.792 17.367v-5.479h-2.194v7.674H24.93a3.76 3.76 0 000-7.52h-9.623v2.194h9.623a1.563 1.563 0 110 3.128H12.794l-.002.003z" fill="currentColor" />
  <path fill-rule="evenodd" clip-rule="evenodd" d="M17.07 3.589h-6.623V1.394h6.624a3.76 3.76 0 010 7.52H3.76a1.563 1.563 0 100 3.128h4.173v2.194H3.76a3.76 3.76 0 010-7.52h13.31a1.563 1.563 0 100-3.127z" fill="currentColor" />
  <!--<path d="M37.698 12.924V1.274h2.477V12.66c0 3.796 1.872 5.35 4.639 5.35 2.767 0 4.586-1.555 4.586-5.35V1.273h2.452v11.652c0 4.824-2.846 7.143-7.038 7.143s-7.117-2.32-7.117-7.143l.001-.001zM53.304 6.439h2.32v2.003c1.081-1.609 2.585-2.345 4.43-2.345 3.242 0 5.799 2.847 5.799 7.01 0 4.164-2.557 6.96-5.8 6.96-1.844 0-3.478-.818-4.428-2.32v6.343h-2.32V6.44zm6.194 11.677c2.53 0 3.954-2.083 3.954-5.009S62.028 8.02 59.498 8.02c-2.53 0-4.007 2.188-4.007 5.06 0 2.874 1.502 5.034 4.007 5.034v.002zM66.774 10.498C66.774 4.752 70.2.93 75.102.93c4.298 0 6.986 2.662 7.514 6.642h-2.477c-.475-2.426-2.03-4.587-5.033-4.587-3.664 0-5.852 3.214-5.852 7.512 0 4.297 2.24 7.513 5.852 7.513 3.137 0 4.823-2.24 5.191-4.665h2.504c-.74 4.507-3.664 6.721-7.699 6.721-4.982 0-8.328-3.795-8.328-9.568zM84.04 1.273h2.32v18.452h-2.32V1.273zM87.413 13.082c0-3.954 2.372-6.985 6.407-6.985 4.034 0 6.406 3.031 6.406 6.985s-2.372 6.986-6.406 6.986c-4.035 0-6.407-3.005-6.407-6.986zm6.407 5.06c2.899 0 4.006-2.477 4.006-5.088 0-2.61-1.107-5.033-4.006-5.033-2.9 0-4.007 2.452-4.007 5.033 0 2.582 1.08 5.088 4.007 5.088zM101.095 14.769V6.44h2.321v8.17c0 2.32 1.318 3.506 3.214 3.506s3.586-1.634 3.586-4.007v-7.67h2.32v13.284h-2.32v-2.056c-.87 1.582-2.53 2.4-4.403 2.4-2.767 0-4.719-1.846-4.719-5.298h.001zM113.51 13.028c0-4.165 2.584-6.933 5.773-6.933 1.898 0 3.531.79 4.454 2.32V1.274h2.32v18.452h-2.32V17.72c-1.053 1.583-2.556 2.345-4.454 2.345-3.189 0-5.773-2.846-5.773-7.038zm6.38 5.088c2.503 0 3.98-2.162 3.98-5.062 0-2.9-1.477-5.033-3.98-5.033s-3.98 2.11-3.98 5.009c0 2.9 1.45 5.087 3.98 5.087v-.001z" fill="currentColor" />-->
</svg>
